<?xml version="1.0" encoding="utf-8"?>
<!-- Generator: Adobe Illustrator 23.1.0, SVG Export Plug-In . SVG Version: 6.00 Build 0)  -->
<svg version="1.1" xmlns="http://www.w3.org/2000/svg" xmlns:xlink="http://www.w3.org/1999/xlink" x="0px" y="0px"
	 viewBox="0 0 746 711" style="enable-background:new 0 0 746 711;" xml:space="preserve">
<style type="text/css">
	.st0{opacity:0.2;}
	.st1{fill:#F9BF41;}
	.st2{opacity:0.3;}
</style>
<g id="Слой_15">
	<g class="st0">
		<polygon class="st1" points="361.1,62.5 429.2,73.4 284.8,190.6 		"/>
	</g>
	<g class="st0">
		<polygon class="st1" points="218.1,272.3 435.6,93.2 452.3,145.1 395.8,246.3 286.5,298.3 		"/>
	</g>
	<g class="st0">
		<polygon class="st1" points="206.7,278.3 286.5,306 321,335.3 237.8,308 		"/>
	</g>
	<g class="st0">
		<polygon class="st1" points="621.2,711 613.3,692.4 579.9,659.4 546.3,644.9 530.6,597.8 427.5,602.7 411,550.6 345.8,548.2 
			306.5,494.2 285.7,513.4 275.3,542.3 317.6,555.4 343.8,587.9 366.2,571.7 348.3,624.5 416.4,642.1 427.5,662 487.7,690.5 
			493.9,712.3 		"/>
	</g>
</g>
<g id="Слой_14">
	<g class="st2">
		<polygon class="st1" points="429.2,73.4 426.7,65.5 344.1,54.3 251.6,106.8 200.6,191 212.8,271.8 218.1,273.7 204.7,192.1 
			256.6,109.9 347.8,60.4 		"/>
	</g>
	<g class="st2">
		<polygon class="st1" points="435.6,62.5 462,99.8 484.8,177.4 462,142.3 		"/>
	</g>
	<g class="st2">
		<polygon class="st1" points="206.7,278.3 243.4,290.4 311.8,331.6 311.2,326.6 353.3,316 382.4,286 419.7,271.3 452.6,199.7 
			484.1,179.7 462,142.3 487.7,178.6 465.8,216.6 428.8,281.5 322.1,335.6 239.4,308.5 		"/>
	</g>
	<g class="st2">
		<polygon class="st1" points="462,358.4 435.6,321.9 409.7,304.7 394.5,317.7 399,379 441.1,416.6 457.2,458.7 459.8,516.1 
			485.3,485.2 532.5,465.9 550.2,457.2 512.6,407.6 501.1,395 489.3,374.7 		"/>
	</g>
	<g class="st2">
		<polygon class="st1" points="553.8,711 540.7,673.7 546.3,644.9 512.1,631.9 427.5,602.7 367,571 357.2,568.5 337.2,561 
			297.6,521.2 288.1,510.3 267.8,387.2 260.3,365.5 249.1,381.9 249.1,399.4 230.2,371.5 225.6,356.7 221.2,347.8 213.1,337.5 
			200.6,331.6 212.5,391.2 230,417.8 253.9,439.3 260.1,507.6 208.7,462.3 172,314.5 157.5,333.4 142.8,316 134.4,292.5 119,307.7 
			147.3,388.8 179.1,449.3 195,498.2 286.5,566.4 309.3,614.6 347.1,624.5 487.7,690.5 493.9,712.3 		"/>
	</g>
	<g class="st2">
		<polygon class="st1" points="294,434.7 341.2,458.6 337.9,470.4 327.7,478.1 302.7,463.4 		"/>
	</g>
	<g class="st2">
		<polygon class="st1" points="344.6,550.6 361.4,516.5 409.7,499.9 411,521.2 395,539.2 365.3,551.6 		"/>
	</g>
</g>
<g id="Слой_8">
	<g>
		<polygon class="st1" points="646.8,713.2 595.7,580.4 576.5,478.5 565.4,450.3 505.8,402.9 495.9,386.1 462.3,361.1 432.5,321.9 
			409.9,307.8 396.2,319.6 401.4,377.8 444,415.9 460.6,460.7 417.7,466.6 387.5,451.9 345.3,446.5 344.9,446.3 289.8,415.9 
			281.6,383.8 260.9,369 255.1,377 236.1,348.3 216,322.2 193.4,328.9 174.5,314.4 168.1,319.1 134.6,295.7 121.6,307.6 
			155.4,404.5 185,454.3 197.1,496.7 289.2,565.3 311.1,612.5 348.3,621.8 348.5,621.9 489.8,688.7 496.3,711.7 491.5,713 
			485.6,692.3 346.6,626.5 307.6,616.7 285.2,568.6 192.8,499.7 180.4,456.3 150.8,406.6 150.7,406.4 115.8,306.1 134.2,289.4 
			168,313 174.6,308.1 194.4,323.4 217.8,316.4 240.2,345.5 255.3,368.2 259.7,362 286,380.8 294.1,412.6 346.9,441.7 389,447.1 
			418.5,461.5 453.7,456.6 439.7,418.8 396.6,380.2 391,317.4 409.4,301.6 435.9,318.2 465.8,357.5 499.7,382.7 509.6,399.6 
			569.5,447.2 581.4,477.4 600.5,579 651.5,711.5 		"/>
	</g>
	<g>
		<path class="st1" d="M322.3,338.3l-84.2-27.6l-35.7-33.1l-15.1-87.6l0.5-0.8l57.5-93.5L344.9,43l91,15.6l29.4,41.5l23.4,78
			l-0.5,0.9l-57.6,104.3L322.3,338.3z M240.7,306.3l81.2,26.6L427,279.6l56.3-102.1l-22.6-75.2L433,63.2l-87.2-15l-96.9,51.4
			l-56.3,91.6l14.5,84L240.7,306.3z"/>
	</g>
</g>
<g id="Слой_9">
	<g>
		<polygon class="st1" points="180.7,457.3 154.8,330.5 166,314.6 170.1,317.5 160.2,331.6 185.6,456.3 		"/>
	</g>
	<g>
		<polygon class="st1" points="254.9,479.9 224,451.1 196.5,334.1 172.1,313.8 175.3,310 200.9,331.3 228.5,448.5 258.3,476.3 		"/>
	</g>
	<g>
		<polygon class="st1" points="252.2,441.1 227.7,419.1 208.1,383.1 212.5,380.7 231.7,415.9 255.5,437.4 		"/>
	</g>
	<g>
		<polygon class="st1" points="284.2,567.5 257.9,510.9 257.8,510.5 246.5,381.2 258.3,364.1 262.4,366.9 251.7,382.5 262.8,509.6 
			288.8,565.3 		"/>
	</g>
	<g>
		<polygon class="st1" points="543.9,645.6 530.4,600.5 410.5,553.1 343.2,553.1 305.5,494.9 305.4,494.4 288.6,411.1 293.5,410.1 
			310.2,493 345.9,548.1 411.4,548.1 534.5,596.7 548.7,644.2 		"/>
	</g>
	<g>
		<polygon class="st1" points="483.2,556.7 457.3,516.8 455.1,459.9 460.1,459.7 462.3,515.3 487.4,554 		"/>
	</g>
</g>
<g id="Слой_10">
	<g>
		<polygon class="st1" points="286.6,307.1 286.2,306.9 204.3,277.3 205,275.4 286.5,304.9 400.5,251.1 460.9,143.5 434.6,62.8 
			436.5,62.2 463.1,143.7 462.9,144.1 402,252.6 		"/>
	</g>
	<g>
		<polygon class="st1" points="262.2,549.1 259.2,508.9 222.3,520.4 172,313.6 174,313.1 223.8,517.8 261,506.3 264.2,548.9 		"/>
	</g>
	<g>
		<path class="st1" d="M532.4,601.9l-21.3-73.4l-26.8-43.1l8.4-52.8l-7.5-19.4l-47-47.3l-6.7-25.4l-22.6-35.4l1.7-1.1l22.8,35.6
			l6.6,25.2l46.9,47.2l0.1,0.2l7.6,19.6l38.1,32.8l35.4-17.4l13,35.7l-13.4,28.6L532.4,601.9z M486.4,485l26.6,42.7l0,0.1l19.7,67.9
			l33.1-84.8l13.1-28l-11.9-32.8l-34.6,17l-38-32.7L486.4,485z"/>
	</g>
	<g>
		<path class="st1" d="M531,713.3c-0.2,0-0.3,0-0.5-0.1l-43.2-21.8c-0.4-0.2-0.6-0.6-0.5-1c0-0.4,0.3-0.8,0.7-0.9l52.9-16.9l39-14.2
			l33-39l-8.8-22.8l-4.4,7.5c-0.1,0.2-0.3,0.4-0.6,0.5l-27.1,8.2c-0.2,0.1-0.4,0.1-0.6,0L533.1,600l-17,31.2
			c-0.1,0.2-0.3,0.4-0.5,0.5L427.9,663c-0.3,0.1-0.6,0.1-0.9-0.1c-0.3-0.2-0.4-0.5-0.4-0.8v-59.2L410.3,552l-42.8,19.9l-57.6,43.5
			c-0.3,0.2-0.8,0.3-1.1,0.1c-0.4-0.2-0.5-0.6-0.5-1l10.1-58.4L275,543.3c-0.3-0.1-0.5-0.3-0.6-0.5c-0.1-0.2-0.1-0.5,0-0.8l10.8-30
			l-25.5-5.8c-0.3-0.1-0.5-0.2-0.7-0.5s-0.2-0.6,0-0.8l19.6-50.2L253,418.9c-0.1-0.2-0.2-0.5-0.2-0.7l6.5-52.9
			c0.1-0.5,0.4-0.8,0.9-0.9c0.5-0.1,0.9,0.2,1.1,0.7l7.5,21.7c0,0,0,0.1,0,0.2l11.9,67.4c0,0.2,0,0.4-0.1,0.5l-19.4,49.6l25.5,5.7
			c0.3,0.1,0.5,0.2,0.7,0.5c0.1,0.3,0.2,0.6,0.1,0.8l-10.9,30l43.3,12.7c0.5,0.1,0.8,0.6,0.7,1.1l-9.8,56.7l55.7-42.1
			c0.1,0,0.1-0.1,0.2-0.1l43.9-20.4c0.3-0.1,0.6-0.1,0.8,0c0.3,0.1,0.5,0.3,0.6,0.6l16.6,52.1c0,0.1,0,0.2,0,0.3v57.9l85.9-30.6
			l17.3-31.6c0.2-0.4,0.7-0.6,1.2-0.5l38.4,12.9l26.4-8l5.2-9c0.2-0.3,0.6-0.5,0.9-0.5c0.4,0,0.7,0.3,0.9,0.6l9.7,25.3
			c0.1,0.3,0.1,0.7-0.2,1L580.7,660c-0.1,0.1-0.3,0.2-0.4,0.3L541,674.6l-50.6,16.1l40.7,20.6l20.6-5.4l64.5-13.2l15.3-24.8l1.7,1
			l-15.5,25.2c-0.1,0.2-0.4,0.4-0.7,0.5l-64.9,13.3l-20.9,5.5C531.1,713.3,531,713.3,531,713.3z M254.9,418.1l23.1,32.3l-11.1-63
			l-6-17.5L254.9,418.1z"/>
	</g>
	<g>
		<path class="st1" d="M343,588.5l-55.7-77.6c-0.1-0.1-0.2-0.3-0.2-0.4l-8.4-55.7l2-0.3l8.4,55.4l55.5,77.4L343,588.5z"/>
	</g>
	<g>
		<path class="st1" d="M488.3,691.3l-1.2-1.6l58.5-45.5l24.8-31.2l23.1-29.8l-61.4,14.1c-0.3,0.1-0.6,0-0.9-0.2l-46.4-39.1
			l-70.6-23.1l-2.3,15.9c0,0.3-0.3,0.6-0.6,0.8c-0.3,0.1-0.7,0.1-1-0.1L361.8,518l-15.2,33l-1.8-0.8l15.6-33.9l4.7-35.9
			c0-0.4,0.3-0.7,0.7-0.8l50.7-17c0.3-0.1,0.7,0,1,0.2s0.4,0.6,0.3,0.9l-7.2,36.3l3.8,32.9c0,0,0,0.1,0,0.1l71.1,23.3
			c0.1,0,0.2,0.1,0.3,0.2l46.1,38.9l63.6-14.6c0.4-0.1,0.8,0.1,1.1,0.4s0.2,0.8-0.1,1.2l-24.9,32l-24.9,31.3c0,0.1-0.1,0.1-0.2,0.2
			L488.3,691.3z M367.7,519.7l42.5,29.2l2.1-14.6L367.7,519.7z M362.5,515.9l49.9,16.3l-3.7-32.2c0-0.1,0-0.2,0-0.3l6.9-34.7
			l-48.5,16.3L362.5,515.9z"/>
	</g>
	<g>
		<path class="st1" d="M441.9,418.3c-0.2,0-0.5-0.1-0.7-0.3l-42.9-38.3c-0.3-0.2-0.4-0.6-0.3-0.9c0.1-0.3,0.3-0.6,0.6-0.8l36.3-13
			l-39.8-43.9c-0.3-0.4-0.3-0.9,0-1.3c0.3-0.4,0.8-0.5,1.3-0.3l36.4,19.6l16.4-0.6l0.1,2l-16.7,0.6c-0.2,0-0.4,0-0.5-0.1l-31.5-17
			l36.9,40.7c0.2,0.2,0.3,0.6,0.2,0.9c-0.1,0.3-0.3,0.6-0.6,0.7l-36.1,13l40.7,36.3l15.1-30.7l1.8,0.9l-15.7,31.8
			c-0.1,0.3-0.4,0.5-0.7,0.5C442,418.3,441.9,418.3,441.9,418.3z"/>
	</g>
	<g>
		<path class="st1" d="M485.1,413.1l-17.9-49.8l-28.7,3.3l-0.2-2l29.5-3.4c0.5-0.1,0.9,0.2,1.1,0.7l18.2,50.6L485.1,413.1z"/>
	</g>
	<g>
		<path class="st1" d="M440.1,416.7c-1.5-19.5-3.9-49.2-4.4-50.9l0.8-0.2l0.6-1c0.6,0.4,0.7,0.5,2.8,26.5c1,12.7,2,25.4,2,25.4
			L440.1,416.7z"/>
	</g>
	<g>
		<path class="st1" d="M157,337.1l-16.3-22.1c-0.1-0.1-0.1-0.2-0.1-0.3l-7.1-21.8l1.9-0.6l7.1,21.6l16.2,22L157,337.1z"/>
	</g>
	<g>
		<path class="st1" d="M230.7,418.5l-1.4-1.4l17.3-16.7l-25.2-0.9c-0.3,0-0.6-0.2-0.8-0.4c-0.2-0.3-0.2-0.6-0.1-0.9l16.3-50.7
			L197,332.6l0.7-1.9l40.7,15.2c0.5,0.2,0.8,0.7,0.6,1.2l-16.2,50.3l26.3,1c0.4,0,0.8,0.3,0.9,0.6c0.1,0.4,0,0.8-0.2,1.1
			L230.7,418.5z"/>
	</g>
	<g>
		
			<rect x="124.2" y="321.9" transform="matrix(0.7624 -0.6471 0.6471 0.7624 -176.9285 163.8961)" class="st1" width="21.1" height="2"/>
	</g>
	<g>
		<path class="st1" d="M175,419.8l-23-13.7l9.4-50.1l-35.3-23.5l1.1-1.7l36.4,24.2l-9.3,49.3l16-15.9L175,419.8z M155.6,405.9
			l16.8,10l-3.4-23.3L155.6,405.9z"/>
	</g>
	<g>
		<polygon class="st1" points="195.9,498.5 194,497.8 207.5,462.5 177.7,435.7 185.3,371.5 164,359.9 171,314.4 173,314.7 
			166.2,358.8 187.5,370.4 179.8,434.9 209.8,462 		"/>
	</g>
	<g>
		<path class="st1" d="M262.3,511l-53-48.8v-72.4l-28.1-40.1l15.5-17.5l1.5,1.3l-14.5,16.3l27.6,39.4v71.5l27-1l9.9,9.2l0.1,0.2
			L262.3,511z M212.7,462.6l45.2,41.6L246.4,470l-8.9-8.3L212.7,462.6z"/>
	</g>
	<g>
		<path class="st1" d="M345.8,588.1c-0.1,0-0.2,0-0.2,0c-0.4-0.1-0.8-0.5-0.8-0.9l-1.1-33.5l-11.9,16.9c-0.2,0.3-0.7,0.5-1.1,0.4
			c-0.4-0.1-0.7-0.4-0.8-0.8l-6.9-50.2l-25.2,4.7c-0.4,0.1-0.8-0.1-1-0.4l-9.5-13.3c-0.3-0.4-0.2-1,0.2-1.3l17.4-15.2l-22.1-15
			c-0.4-0.3-0.6-0.8-0.3-1.3l14.3-26.6l-15.5,5.9c-0.4,0.2-0.9,0-1.1-0.3c-0.3-0.3-0.3-0.8-0.1-1.2l12.8-21.2l-25.9-47
			c-0.1-0.3-0.2-0.6-0.1-0.9c0.1-0.3,0.3-0.5,0.6-0.6l16-4.9l0.6,1.9l-14.8,4.5l25.6,46.4c0.2,0.3,0.2,0.7,0,1l-11.6,19.2l15.2-5.8
			c0.4-0.2,0.8,0,1.1,0.3c0.3,0.3,0.3,0.8,0.1,1.1l-15.1,28.1l22.5,15.2c0.3,0.2,0.4,0.5,0.4,0.8s-0.1,0.6-0.3,0.8l-17.7,15.5
			l8.6,12.1l25.6-4.8c0.3,0,0.5,0,0.8,0.2c0.2,0.2,0.4,0.4,0.4,0.7l6.7,48.7l12.2-17.2c0.2-0.3,0.7-0.5,1.1-0.4
			c0.4,0.1,0.7,0.5,0.7,0.9l1.1,32.8l17.7-32.3l1.8,1l-19.5,35.5C346.5,587.9,346.1,588.1,345.8,588.1z"/>
	</g>
	<g>
		
			<rect x="291.3" y="509" transform="matrix(0.5137 -0.858 0.858 0.5137 -289.6205 509.1151)" class="st1" width="26.1" height="2"/>
	</g>
	<g>
		<path class="st1" d="M343.7,551l-21.4-49.3c-0.1-0.2-0.1-0.4-0.1-0.6l4.6-23.2c0-0.2,0.2-0.5,0.4-0.6l0.5-0.4l-13.9-49.8l1.9-0.5
			l13.7,49.1l7.7-5.8l9.4-25.9c0.1-0.4,0.5-0.6,0.9-0.7c0.4,0,0.8,0.2,1,0.5l18.8,36.2c0.2,0.3,0.1,0.7,0,1
			c-0.2,0.3-0.5,0.5-0.9,0.5l-36.7-0.6c-0.4,0-0.8-0.3-0.9-0.7l-0.1-0.4l-4.3,21.5l21.3,49L343.7,551z M330.3,478.9l34.3,0.6
			l-16.9-32.7l-8.7,24c-0.1,0.2-0.2,0.3-0.3,0.5l-8.6,6.4L330.3,478.9z"/>
	</g>
	<g>
		
			<rect x="314.2" y="456.3" transform="matrix(0.5048 -0.8632 0.8632 0.5048 -250.2887 505.2117)" class="st1" width="2" height="29"/>
	</g>
	<g>
		<path class="st1" d="M361.2,517.5l-25.3-6.5c-0.1,0-0.2-0.1-0.2-0.1l-28.3-16.1l1-1.7l28.2,16.1l25.1,6.5L361.2,517.5z"/>
	</g>
	<g>
		<path class="st1" d="M512.1,529.1c-0.3,0-0.5-0.1-0.7-0.3c-0.3-0.3-0.3-0.7-0.2-1l19.8-60.1L486,486.1l-25.4,30.6
			c-0.3,0.4-0.9,0.5-1.3,0.2c-0.4-0.3-0.6-0.8-0.4-1.2l33.9-83.5c0-0.1,0.1-0.2,0.1-0.2l17-22.4L465.3,424l-0.6-1.9l47.6-15.4
			c0.4-0.1,0.9,0,1.1,0.4s0.2,0.8,0,1.2L494.6,433l-31.4,77.4l21.4-25.8c0.1-0.1,0.2-0.2,0.4-0.3l47.1-19.3c0.4-0.1,0.8-0.1,1.1,0.2
			c0.3,0.3,0.4,0.7,0.3,1l-19.8,60.4l50.7-13.9L539,473.6l-5.7-5l1.3-1.5l5.8,5.1c0.1,0.1,0.1,0.1,0.2,0.2l26.1,40.4
			c0.2,0.3,0.2,0.6,0.1,0.9c-0.1,0.3-0.4,0.5-0.7,0.6l-53.8,14.7C512.2,529.1,512.2,529.1,512.1,529.1z"/>
	</g>
	<g>
		<path class="st1" d="M595.1,577.4l-29.3-65.7c-0.1-0.1-0.1-0.3-0.1-0.4l0.8-62.6l2,0l-0.8,62.3l29.2,65.5L595.1,577.4z"/>
	</g>
	<g>
		
			<rect x="568.6" y="513.2" transform="matrix(0.9948 -0.1015 0.1015 0.9948 -52.8966 60.6606)" class="st1" width="2" height="73.7"/>
	</g>
	<g>
		<path class="st1" d="M620.2,711.2l-4.4-17.1l-36.5-33.9l-33.5-14.4l-118.4-42.1l-78.9,21.8c-0.4,0.1-0.7,0-1-0.3
			c-0.3-0.3-0.3-0.7-0.2-1l18.7-53.5c0.1-0.3,0.3-0.5,0.6-0.6c0.3-0.1,0.6-0.1,0.8,0l60.4,31.6l118.7,42.2l33.7,14.5
			c0.1,0,0.2,0.1,0.3,0.2l36.8,34.2c0.1,0.1,0.2,0.3,0.3,0.5l4.4,17.4L620.2,711.2z M367.6,572.4l-17.7,50.6l74.9-20.7L367.6,572.4z
			"/>
	</g>
	<g>
		<path class="st1" d="M500.8,681.1L427.3,663c-0.3-0.1-0.5-0.3-0.7-0.5l-9.4-19.1l-65.8-18.8l0.5-1.9l66.2,18.9
			c0.3,0.1,0.5,0.3,0.6,0.5l9.4,19.1l73.1,18L500.8,681.1z"/>
	</g>
	<g>
		<path class="st1" d="M552.8,711.3L539.7,674c-0.1-0.2-0.1-0.3,0-0.5l5.6-28.8l2,0.4l-5.6,28.5l13,37.1L552.8,711.3z"/>
	</g>
	<g>
		<path class="st1" d="M482.6,578.6l-2-0.3l3.1-23.1c0-0.2,0.1-0.4,0.3-0.6l26-26L459.6,517l-50.2-16.2l0.6-1.9l50.1,16.2l52.2,12
			c0.4,0.1,0.6,0.3,0.7,0.7c0.1,0.4,0,0.7-0.3,1l-27.1,27L482.6,578.6z"/>
	</g>
	<g>
		
			<rect x="427.5" y="599.7" transform="matrix(0.9993 -3.712005e-02 3.712005e-02 0.9993 -21.969 18.2334)" class="st1" width="105.1" height="2"/>
	</g>
	<g>
		<path class="st1" d="M323.6,502.2l-0.9-1.8l43.1-20.9c0.3-0.1,0.6-0.1,0.8,0l42.9,19.1l47.4-39.6l33-27.1l-47.7-15.1l0.6-1.9
			l49.4,15.7c0.3,0.1,0.6,0.4,0.7,0.8c0.1,0.4-0.1,0.7-0.3,1l-34.4,28.2l-47.9,40c-0.3,0.2-0.7,0.3-1,0.1l-43.1-19.2L323.6,502.2z"
			/>
	</g>
	<g>
		
			<rect x="411.8" y="523.1" transform="matrix(0.9289 -0.3702 0.3702 0.9289 -163.0872 198.4784)" class="st1" width="47.4" height="2"/>
	</g>
	<g>
		
			<rect x="426.6" y="526.6" transform="matrix(0.7835 -0.6214 0.6214 0.7835 -231.4618 390.8571)" class="st1" width="37.2" height="2"/>
	</g>
	<g>
		
			<rect x="340.5" y="594" transform="matrix(0.9043 -0.4269 0.4269 0.9043 -227.7339 204.1479)" class="st1" width="2" height="32.1"/>
	</g>
</g>
<g id="Слой_11">
	<g>
		<path class="st1" d="M428.9,280.8l-28.3-28.3l-5.5-5.6c-0.3-0.3-0.4-0.8-0.2-1.2l56.5-101.1l1.7,1L397,246.1l4.9,5.1l28.3,28.3
			L428.9,280.8z"/>
	</g>
	<g>
		<path class="st1" d="M321.5,336.4l-35.6-29.6c-0.2-0.2-0.4-0.5-0.4-0.8v-7l-73-26.3c-0.3-0.1-0.6-0.4-0.6-0.8l-12.3-81.2
			c0-0.2,0-0.5,0.1-0.7l51.1-83.7c0.1-0.1,0.2-0.3,0.4-0.3l92.4-52.6c0.2-0.1,0.4-0.2,0.6-0.1l82.6,11.2c0.4,0.1,0.7,0.3,0.8,0.7
			l25.3,78.6l7.8-3.7c0.4-0.2,1-0.1,1.3,0.3l24.9,36.8l-1.7,1.1l-24.4-36.1l-8.1,3.8c-0.3,0.1-0.6,0.1-0.8,0
			c-0.3-0.1-0.5-0.3-0.6-0.6l-25.4-79.1l-81.7-11.1l-91.9,52.3l-50.7,83.2l12.1,80.2l73.1,26.4c0.4,0.1,0.7,0.5,0.7,0.9v7.2
			l35.2,29.3L321.5,336.4z"/>
	</g>
	<g>
		
			<rect x="280.6" y="271.3" transform="matrix(0.9028 -0.4301 0.4301 0.9028 -83.9515 173.2232)" class="st1" width="121.1" height="2"/>
	</g>
	<g>
		
			<rect x="216.4" y="190" transform="matrix(0.668 -0.7442 0.7442 0.668 -26.6549 322.2696)" class="st1" width="262.8" height="2"/>
	</g>
	<g>
		
			<rect x="412.5" y="128.1" transform="matrix(0.2872 -0.9579 0.9579 0.2872 144.3487 507.9057)" class="st1" width="2" height="57.7"/>
	</g>
	<g>
		<path class="st1" d="M217.1,273.8l-11.4-82.7c0-0.2,0-0.5,0.1-0.7l49.9-80.6c0.1-0.1,0.2-0.3,0.4-0.4l91.3-50
			c0.2-0.1,0.4-0.1,0.6-0.1l81.4,13l-0.3,2l-81-12.9l-90.7,49.8l-49.5,80.1l11.3,82.3L217.1,273.8z"/>
	</g>
	<g>
		
			<rect x="260.6" y="180.5" transform="matrix(3.336344e-02 -0.9994 0.9994 3.336344e-02 22.834 483.9261)" class="st1" width="2" height="99.3"/>
	</g>
	<g>
		
			<rect x="338.1" y="72.7" transform="matrix(0.8901 -0.4557 0.4557 0.8901 -20.2067 168.3678)" class="st1" width="2" height="106.8"/>
	</g>
	<g>
		
			<rect x="238.1" y="130.6" transform="matrix(0.9881 -0.1538 0.1538 0.9881 -16.8054 45.9032)" class="st1" width="100.4" height="2"/>
	</g>
</g>
<g id="Слой_12">
	<g>
		
			<rect x="148.6" y="348.5" transform="matrix(0.1153 -0.9933 0.9933 0.1153 -226.4165 467.2909)" class="st1" width="1" height="24.4"/>
	</g>
	<g>
		<path class="st1" d="M209,369.3l-0.6-0.8l27.9-20.2h-34v-1h35.5c0.2,0,0.4,0.1,0.5,0.3c0.1,0.2,0,0.4-0.2,0.6L209,369.3z"/>
	</g>
	<g>
		
			<rect x="170.2" y="380.4" transform="matrix(0.9824 -0.1865 0.1865 0.9824 -67.9291 39.8608)" class="st1" width="15.3" height="1"/>
	</g>
	<g>
		<path class="st1" d="M223.7,516.8l-0.9-0.4l14.6-31.8l5.7-18.7l5.4-30.3l-25.2,1.9c-0.2,0-0.3-0.1-0.4-0.2
			c-0.1-0.1-0.1-0.3-0.1-0.5l6.6-18.5l-32-1.2l0-1l32.7,1.2c0.2,0,0.3,0.1,0.4,0.2c0.1,0.1,0.1,0.3,0.1,0.4l-6.6,18.4l25.1-1.9
			c0.2,0,0.3,0,0.4,0.2c0.1,0.1,0.1,0.3,0.1,0.4l-5.5,31l-5.8,18.8L223.7,516.8z"/>
	</g>
	<g>
		
			<rect x="242.9" y="347.2" transform="matrix(0.9769 -0.2138 0.2138 0.9769 -74.255 60.6866)" class="st1" width="1" height="52.8"/>
	</g>
	<g>
		<path class="st1" d="M361.4,517c-0.2,0-0.3-0.1-0.4-0.2l-15.7-26.2l0.9-0.5l15.5,25.8l47.4-16.4l-21-49.3l-64.6,51.4
			c-0.1,0.1-0.3,0.1-0.5,0.1c-0.2,0-0.3-0.2-0.3-0.3l-11.3-32.6c-0.1-0.2,0-0.4,0.2-0.6l32.1-25.9l0.6,0.8l-31.8,25.7l11,31.6
			l64.6-51.4c0.1-0.1,0.3-0.1,0.4-0.1c0.2,0,0.3,0.1,0.3,0.3l21.4,50.4c0.1,0.1,0.1,0.3,0,0.4s-0.2,0.2-0.3,0.3L361.6,517
			C361.5,517,361.5,517,361.4,517z"/>
	</g>
	<g>
		<path class="st1" d="M436.7,366h-38.9v-1h36.5L396,348.3l0.4-0.9l40.5,17.7c0.2,0.1,0.3,0.3,0.3,0.6
			C437.1,365.8,436.9,366,436.7,366z"/>
	</g>
	<g>
		
			<rect x="433.1" y="356.2" transform="matrix(0.7264 -0.6873 0.6873 0.7264 -123.097 404.1271)" class="st1" width="25.7" height="1"/>
	</g>
	<g>
		<path class="st1" d="M343.8,588.4l-29.7-1.1c-0.1,0-0.3-0.1-0.4-0.2l-37.9-42.4l0.7-0.7l37.8,42.2l29.5,1.1L343.8,588.4z"/>
	</g>
	<g>
		<path class="st1" d="M366.2,549.5c-0.2,0-0.3-0.1-0.4-0.2l-22.4-37l0.9-0.5l21.7,35.8l4.2-26.4l1,0.2l-4.4,27.8
			C366.7,549.3,366.5,549.5,366.2,549.5C366.3,549.5,366.2,549.5,366.2,549.5z"/>
	</g>
	<g>
		<path class="st1" d="M487.5,416.2l-0.6-0.8l20-14.2c-2-1.8-10.3-9.1-18.3-16.6c-18.9-17.5-18.4-18.7-18.2-19.3l0.9,0.4
			c0-0.1,0-0.1,0-0.1c0.2,2.3,22.6,22.8,36.7,35.3c0.1,0.1,0.2,0.2,0.2,0.4s-0.1,0.3-0.2,0.4L487.5,416.2z"/>
	</g>
	<g>
		<path class="st1" d="M550.2,457.7c-0.1,0-0.1,0-0.2,0L493.5,433c-0.2-0.1-0.4-0.4-0.3-0.6c0.1-0.2,0.3-0.4,0.6-0.3l44,9.6
			l-25.6-33.8l0.8-0.6l26.3,34.7l28.3,6.2l-0.2,1l-27.2-6l10.4,13.7c0.1,0.2,0.1,0.4,0,0.6C550.4,457.7,550.3,457.7,550.2,457.7z
			 M498.5,434.1l50.1,21.9l-9.9-13.1L498.5,434.1z"/>
	</g>
	<g>
		<path class="st1" d="M553.8,707c0,0-0.1,0-0.1,0l-61.8-16c-0.2,0-0.3-0.2-0.4-0.3c-0.1-0.2,0-0.3,0.1-0.5l9-10.3l10.8-47.5
			L418,643c-0.1,0-0.2,0-0.3-0.1L357,605.7c-0.2-0.1-0.3-0.3-0.2-0.6c0.1-0.2,0.2-0.4,0.5-0.4l70.2-2.5l53.6-24l-23.9-62.7
			c-0.1-0.2,0-0.4,0.2-0.6c0.2-0.1,0.4-0.1,0.6,0L494,544c0,0,0.1,0.1,0.1,0.1l37.5,52.3l-30.5-157.7l-8.6,57.3l-1-0.1l9.1-60.1
			c0-0.2,0.2-0.4,0.5-0.4c0.2,0,0.5,0.2,0.5,0.4l31.2,161.7l25.9-34.9l-37.2-64c-0.1-0.2-0.1-0.4,0-0.6c0.1-0.2,0.4-0.2,0.5-0.2
			l44,15.3l21.9,10.7c0.1,0.1,0.2,0.2,0.3,0.3c0,0.1,0,0.3-0.1,0.4l-28.2,38.1l13.9,24c0,0.1,0.1,0.1,0.1,0.2l8,70.9
			c0,0.1,0,0.2-0.1,0.3l-27.6,48.8C554.1,706.9,553.9,707,553.8,707z M492.9,690.2l60.6,15.7l27.3-48.3l-8-70.7l-13.7-23.5
			l-26.3,35.5c-0.1,0.2-0.3,0.2-0.5,0.2c-0.1,0-0.2-0.1-0.3-0.2l-38.8-54.1l-34.6-27.9l23.4,61.4c0.1,0.2,0,0.5-0.3,0.6l-54.1,24.2
			c-0.1,0-0.1,0-0.2,0l-68.6,2.5l59.2,36.3l94-10.6c0.2,0,0.3,0,0.4,0.2c0.1,0.1,0.2,0.3,0.1,0.4l-11,48.3c0,0.1-0.1,0.2-0.1,0.2
			L492.9,690.2z M523,499.1l36.3,62.5l27.6-37.3l-21.3-10.4L523,499.1z"/>
	</g>
	<g>
		<path class="st1" d="M501.1,680.6c-0.1,0-0.2,0-0.3-0.1l-35.6-31.6l-22.2-10.1c-0.1-0.1-0.2-0.1-0.3-0.3l-15.5-35.7
			c-0.1-0.2,0-0.4,0.1-0.6c0.2-0.1,0.4-0.2,0.6,0l43.7,31l17.6-10.1l43.2-25c0.2-0.1,0.4-0.1,0.5,0c0.2,0.1,0.2,0.3,0.2,0.5
			l-1.9,40.7c0,0.1,0,0.2-0.1,0.3l-29.5,40.8C501.4,680.5,501.3,680.6,501.1,680.6C501.1,680.6,501.1,680.6,501.1,680.6z M443.4,638
			l22.1,10c0,0,0.1,0,0.1,0.1l35.3,31.2l29.1-40.2l1.9-39.7L489.5,624l-17.8,10.2c-0.2,0.1-0.4,0.1-0.5,0l-42.5-30.1L443.4,638z"/>
	</g>
	<g>
		<path class="st1" d="M481.3,578.9l-50.7-39.1L411.2,551l-0.5-0.9l19.7-11.4c0.2-0.1,0.4-0.1,0.6,0l51,39.3L481.3,578.9z"/>
	</g>
	<g>
		<path class="st1" d="M380.3,603.2c-0.2,0-0.4-0.2-0.5-0.4l-14.1-53.7c-0.1-0.3,0.1-0.5,0.3-0.6l47.2-16.1l21.9-24.5l21.5-47.3
			l-75.8,26.6l-19,29.6l-0.8-0.5l19.1-29.7c0.1-0.1,0.2-0.2,0.3-0.2l77-27c0.2-0.1,0.4,0,0.5,0.1s0.2,0.4,0.1,0.5l-22,48.4
			c0,0,0,0.1-0.1,0.1l-22,24.7c-0.1,0.1-0.1,0.1-0.2,0.1l-46.9,16l13.4,50.9l3.2-20.5c0-0.2,0.2-0.4,0.4-0.4l46.9-5.5l-14.5-5.4
			l0.3-0.9l16.4,6.1l51.8,5.6c0.2,0,0.3,0.1,0.4,0.3c0.1,0.1,0.1,0.3,0,0.5l-10.5,21.2c-0.1,0.1-0.2,0.2-0.3,0.3
			c-0.1,0-0.3,0-0.4-0.1l-16.7-11.7l-24.5-15.1l-48.4,5.7l-3.6,22.4C380.8,603,380.6,603.2,380.3,603.2
			C380.3,603.2,380.3,603.2,380.3,603.2z M435,574.8l22.8,14l16.2,11.4l9.9-20.1L435,574.8z"/>
	</g>
	<g>
		<path class="st1" d="M646.9,707c-0.1,0-0.1,0-0.2,0l-75.3-31.5l0.4-0.9l44,18.4l-26.1-45.3l-11.3-14.3l-31.9,12.1l-0.4-0.9
			l32.2-12.2c0.2-0.1,0.4,0,0.6,0.2l11.6,14.7l26.6,46.2l30,12.8c0.3,0.1,0.4,0.4,0.3,0.7C647.3,706.8,647.1,707,646.9,707z"/>
	</g>
	<g>
		<path class="st1" d="M495.1,501.7l-0.7-0.7l37.7-33.4c0.2-0.2,0.4-0.2,0.6,0l7.3,5.1c0,0,0.1,0.1,0.1,0.1l8,11l18.8-36.8l0.9,0.5
			l-19.1,37.5c-0.1,0.2-0.2,0.3-0.4,0.3c-0.2,0-0.3-0.1-0.4-0.2l-8.5-11.6l-6.9-4.8L495.1,501.7z"/>
	</g>
	<g>
		
			<rect x="589.1" y="664.7" transform="matrix(0.1527 -0.9883 0.9883 0.1527 -181.1001 1166.236)" class="st1" width="1" height="48"/>
	</g>
	<g>
		<path class="st1" d="M280.1,321.9l-0.9-0.4l6.6-14.3l-4.8-2.6l-6.9,15.4c-0.1,0.2-0.4,0.4-0.6,0.3l-16.2-5.3
			c-0.2-0.1-0.3-0.2-0.3-0.4c0-0.2,0-0.4,0.1-0.5l14-13.1l-5.8-2.1l-16,12.1c-0.2,0.1-0.4,0.1-0.6,0c-0.2-0.1-0.2-0.4-0.1-0.6
			l7.2-14.9l-12.6-4.6l-8.1-1.5v14.7c0,0.2-0.1,0.4-0.3,0.5c-0.2,0.1-0.4,0-0.6-0.1l-8.9-10.1c-0.1-0.1-0.1-0.2-0.1-0.3v-9.6l-5-1.8
			l-1.7,3.7l-0.9-0.4l1.9-4.1c0.1-0.2,0.4-0.3,0.6-0.3l5.7,2.1c0.2,0.1,0.3,0.3,0.3,0.5v9.8l7.9,9v-14c0-0.1,0.1-0.3,0.2-0.4
			c0.1-0.1,0.3-0.1,0.4-0.1l8.8,1.6l13.2,4.8c0.1,0,0.2,0.2,0.3,0.3s0,0.3,0,0.4l-6.6,13.6l14.6-11c0.1-0.1,0.3-0.1,0.5-0.1l6.8,2.5
			c0.2,0.1,0.3,0.2,0.3,0.4c0,0.2,0,0.3-0.1,0.5l-14,13.1l14.9,4.9l6.9-15.4c0.1-0.1,0.2-0.2,0.3-0.3c0.1,0,0.3,0,0.4,0l5.7,3.1
			c0.2,0.1,0.3,0.4,0.2,0.6L280.1,321.9z"/>
	</g>
	<g>
		
			<rect x="232.2" y="296.3" transform="matrix(0.6514 -0.7588 0.7588 0.6514 -141.5147 285.7116)" class="st1" width="15.8" height="1"/>
	</g>
	<g>
		<path class="st1" d="M321,335.8c-0.1,0-0.3-0.1-0.4-0.2l-6.9-7.8c-0.1-0.1-0.1-0.2-0.1-0.3v-33.7l-11.1,5.3l-3.1,17.3l-1-0.2
			l3.2-17.6c0-0.2,0.1-0.3,0.3-0.4l12.1-5.7c0.2-0.1,0.3-0.1,0.5,0c0.1,0,0.1,0.1,0.2,0.2l19.3,36.9c0.1,0.1,0.1,0.3,0,0.4
			s-0.1,0.2-0.3,0.3l-12.3,5.3C321.2,335.7,321.1,335.8,321,335.8z M314.6,327.3l6.6,7.4l11.5-5L314.6,295V327.3z"/>
	</g>
	<g>
		<path class="st1" d="M346.9,323.4l-1-0.3l6-21.4c0,0,0-0.1,0.1-0.1l25.8-39.2c0-0.1,0.1-0.1,0.2-0.2l11-5.2
			c0.2-0.1,0.4-0.1,0.5,0.1c0.1,0.1,0.2,0.3,0.2,0.5l-12.1,49.2l38-19.3L400,254.1l0.9-0.4l15.9,33.9c0.1,0.2,0,0.5-0.2,0.7
			l-39.4,20c-0.2,0.1-0.4,0.1-0.5-0.1c-0.2-0.1-0.2-0.3-0.2-0.5l12.1-49.3l-9.9,4.7l-25.7,39L346.9,323.4z"/>
	</g>
	<g>
		<path class="st1" d="M357.3,318.2c-0.2,0-0.4-0.1-0.4-0.3l-18.2-36.4l-7.6-3l-4,8.6c-0.1,0.2-0.2,0.3-0.4,0.3l-24.3,3.8l-8.6,11.7
			l-0.8-0.6l8.8-11.9c0.1-0.1,0.2-0.2,0.3-0.2l24.2-3.8l4.1-8.8c0.1-0.2,0.4-0.3,0.6-0.3l8.2,3.2c0.1,0,0.2,0.1,0.3,0.2l16.6,33.1
			l-7.8-37.3c0-0.2,0-0.3,0.1-0.5s0.3-0.2,0.5-0.1l57.3,15.9l-0.3,1l-56.5-15.7l8.4,40.3c0.1,0.2-0.1,0.5-0.3,0.6
			C357.5,318.2,357.4,318.2,357.3,318.2z"/>
	</g>
	<g>
		<path class="st1" d="M333.3,330.4l-19.3-2.5c-0.2,0-0.4-0.2-0.4-0.4s0-0.4,0.2-0.5l38.4-25.6l67-30.5l-0.7-50.6
			c0-0.1,0-0.3,0.1-0.4c0.1-0.1,0.2-0.1,0.4-0.1h42.8l-19.8-41.1c-0.1-0.2-0.1-0.3,0-0.5c0.1-0.1,0.3-0.2,0.4-0.2h42.3l-0.2-0.3
			l-38.1-6c-0.2,0-0.3-0.1-0.4-0.3s-0.1-0.3,0-0.5l2.8-5c0.1-0.1,0.2-0.2,0.4-0.2l26.2-4.1c0.2,0,0.4,0.1,0.5,0.2l10.1,16.4
			c0.1,0.2,0.1,0.3,0,0.5c-0.1,0.2-0.3,0.3-0.4,0.3h-42.4l19.8,41.1c0.1,0.2,0.1,0.3,0,0.5c-0.1,0.1-0.3,0.2-0.4,0.2h-43.1l0.7,50.4
			c0,0.2-0.1,0.4-0.3,0.5l-67.2,30.6l-37.2,24.8l17.9,2.3L333.3,330.4z M447.3,170.9l36.6,5.8l-8.6-13.9l-25.6,4L447.3,170.9z"/>
	</g>
	<g>
		<path class="st1" d="M314.6,327.6l-1-0.3l12.6-38.9c0-0.1,0.2-0.3,0.3-0.3c0.1-0.1,0.3,0,0.4,0l42.1,23.3l-0.5,0.9l-41.6-23
			L314.6,327.6z"/>
	</g>
	<g>
		<path class="st1" d="M479.5,177L453,161.1l-8.7-1.3c-0.2,0-0.3-0.2-0.4-0.3c-0.1-0.2,0-0.4,0.1-0.5l17.6-17l0.7,0.7L445.5,159
			l7.8,1.1c0.1,0,0.1,0,0.2,0.1l26.5,16L479.5,177z"/>
	</g>
	<g>
		<path class="st1" d="M441.5,259.1c0,0-0.1,0-0.1,0l-39-8.9c-0.2,0-0.3-0.1-0.3-0.3c-0.1-0.1-0.1-0.3,0-0.4l3.9-7
			c0.1-0.1,0.1-0.2,0.2-0.2l26.8-10.9l-13.7-11.9c-0.1-0.1-0.2-0.3-0.2-0.4c0-0.2,0.1-0.3,0.2-0.4l16.1-9.8l-7.7-3.6l-12.9,8.1
			l-3,20.6c0,0.1-0.1,0.2-0.2,0.3l-15.6,12.5l-0.6-0.8l15.4-12.3l3-20.6c0-0.1,0.1-0.3,0.2-0.4l13.4-8.3c0.1-0.1,0.3-0.1,0.5,0
			l8.6,4l47.3-28.9l0.5,0.9l-46.7,28.5l23.8,11.2c0.2,0.1,0.3,0.3,0.3,0.5c0,0.2-0.1,0.4-0.3,0.4l-26.5,10.8l13.8,11.9
			c0.2,0.1,0.2,0.4,0.1,0.6l-6.9,14.6C441.8,259,441.7,259.1,441.5,259.1z M403.2,249.3l37.9,8.6l6.6-13.9l-13.9-12l-27.1,11
			L403.2,249.3z M420.5,219.2l13.5,11.7l26-10.6l-23.4-11L420.5,219.2z"/>
	</g>
	<g>
		
			<rect x="417" y="182.3" transform="matrix(0.6571 -0.7538 0.7538 0.6571 11.5754 391.0754)" class="st1" width="37.3" height="1"/>
	</g>
	<g>
		
			<rect x="456.3" y="174.1" transform="matrix(0.7691 -0.6391 0.6391 0.7691 -18.1841 336.6201)" class="st1" width="1" height="38.7"/>
	</g>
	<g>
		<path class="st1" d="M470.9,156.2l-4.2-40.1l-9.6,11.8c-0.1,0.2-0.3,0.2-0.5,0.2c-0.2-0.1-0.3-0.2-0.4-0.4l-4.5-41.5l1-0.1
			l4.3,40.3l9.6-11.8c0.1-0.2,0.3-0.2,0.5-0.2c0.2,0.1,0.3,0.2,0.4,0.4l4.3,41.3L470.9,156.2z"/>
	</g>
	<g>
		<rect x="426.1" y="62.7" transform="matrix(0.8603 -0.5097 0.5097 0.8603 27.93 228.3053)" class="st1" width="9" height="1"/>
	</g>
	<g>
		<rect x="429.6" y="73.9" class="st1" width="9.9" height="1"/>
	</g>
	<g>
		
			<rect x="440.1" y="79.7" transform="matrix(0.7808 -0.6248 0.6248 0.7808 38.393 295.6968)" class="st1" width="1" height="26.9"/>
	</g>
	<g>
		<path class="st1" d="M460.3,139.9l-16.3-21c-0.1-0.1-0.1-0.3-0.1-0.5L449,105l0.9,0.4l-5,13.1l16.1,20.8L460.3,139.9z"/>
	</g>
	<g>
		<path class="st1" d="M455.7,117.6c-0.1,0-0.3-0.1-0.4-0.2c-0.1-0.1-0.2-0.3-0.1-0.5l6.4-17.3l0.9,0.3l-6,16.4l10.2-3l0.3,1
			l-11.2,3.2C455.8,117.6,455.7,117.6,455.7,117.6z"/>
	</g>
	<g>
		<path class="st1" d="M251.6,107.3C251.6,107.3,251.6,107.3,251.6,107.3c-0.3,0-0.4-0.2-0.5-0.3l-3.7-9.7l0.9-0.4l3.4,8.9
			l15.4-19.4c0.1-0.1,0.2-0.2,0.3-0.2l22.8-2.2v-9.6c0-0.3,0.2-0.5,0.5-0.5h15.9l7.5-11c0,0,0.1-0.1,0.1-0.1l7.1-5.2
			c0.2-0.1,0.4-0.1,0.6,0s0.3,0.3,0.2,0.5l-2.1,9.1L343.5,54l-0.7-7.3c0-0.1,0-0.3,0.1-0.4s0.2-0.2,0.4-0.2l8.7,0.1
			c0.1,0,0.2,0,0.3,0.1l10.5,9.4v-7.1c0-0.2,0.1-0.4,0.4-0.5c0.2-0.1,0.4,0,0.6,0.2l5.2,8.6l13-5.5c0.1-0.1,0.3-0.1,0.4,0l19.1,9.4
			l2.4-5.3c0.1-0.2,0.3-0.3,0.5-0.3l12.1,2.1c0.1,0,0.2,0.1,0.2,0.1l8.7,7.5l-0.7,0.8l-8.6-7.4l-11.6-2l-2.5,5.5
			c-0.1,0.1-0.2,0.2-0.3,0.3c-0.1,0-0.3,0-0.4,0l-19.3-9.5l-13.2,5.6c-0.2,0.1-0.5,0-0.6-0.2l-4.5-7.4v6.4c0,0.2-0.1,0.4-0.3,0.5
			c-0.2,0.1-0.4,0-0.5-0.1l-11.2-10l-8-0.1l0.7,7c0,0.2-0.1,0.4-0.3,0.5l-24.6,14c-0.2,0.1-0.4,0.1-0.5,0c-0.2-0.1-0.2-0.3-0.2-0.5
			l2.1-8.9l-5.9,4.3l-7.6,11.2c-0.1,0.1-0.2,0.2-0.4,0.2h-15.7v9.6c0,0.3-0.2,0.5-0.5,0.5l-23,2.2L252,107.2
			C251.9,107.3,251.8,107.3,251.6,107.3z"/>
	</g>
	<g>
		<path class="st1" d="M192.5,191.5l-0.2-1l9.2-2.3l7.6-12.4c0.1-0.3,0.7-3.3,2.4-19.2l0.1-0.8c0.2-1.5,30.5-38.1,39.8-49.3l0.8,0.6
			c-15.6,18.7-38.9,47.2-39.6,48.8l-0.1,0.8c-2,18.8-2.4,19.3-2.5,19.6l-7.7,12.6c-0.1,0.1-0.2,0.2-0.3,0.2L192.5,191.5z"/>
	</g>
	<g>
		<path class="st1" d="M286.5,298.8l-24.4-1.2c-0.1,0-0.2,0-0.3-0.1L242.2,283l-7,4.8c-0.2,0.2-0.5,0.1-0.7-0.1l-7.2-10.1l-9.4-3.4
			l-13.3,2.7c-0.2,0-0.4,0-0.5-0.2s-0.1-0.4,0-0.6l7-10l-6.9-5.9c-0.1-0.1-0.2-0.2-0.2-0.4v-37.7h-9c-0.1,0-0.3-0.1-0.4-0.2
			c-0.1-0.1-0.1-0.3-0.1-0.4l5.4-30.6l1,0.2l-5.3,30h8.9c0.3,0,0.5,0.2,0.5,0.5v38l7.1,6.1c0.2,0.2,0.2,0.5,0.1,0.7l-6.6,9.4
			l12.2-2.5c0.1,0,0.2,0,0.3,0l9.7,3.5c0.1,0,0.2,0.1,0.2,0.2l7,9.8l6.8-4.7c0.2-0.1,0.4-0.1,0.6,0l19.8,14.7l24.2,1.1L286.5,298.8z
			"/>
	</g>
</g>
<g id="Слой_13">
	<g>
		<circle class="st1" cx="336.6" cy="121.8" r="4.3"/>
	</g>
	<g>
		<circle class="st1" cx="363.4" cy="173.6" r="4.3"/>
	</g>
	<g>
		<circle class="st1" cx="385.8" cy="148.7" r="4.3"/>
	</g>
	<g>
		<circle class="st1" cx="311.2" cy="231.8" r="4.3"/>
	</g>
</g>
</svg>
